<?xml version="1.0" encoding="UTF-8" standalone="no"?>
<svg
   xmlns:dc="http://purl.org/dc/elements/1.1/"
   xmlns:cc="http://creativecommons.org/ns#"
   xmlns:rdf="http://www.w3.org/1999/02/22-rdf-syntax-ns#"
   xmlns:svg="http://www.w3.org/2000/svg"
   xmlns="http://www.w3.org/2000/svg"
   xmlns:sodipodi="http://sodipodi.sourceforge.net/DTD/sodipodi-0.dtd"
   xmlns:inkscape="http://www.inkscape.org/namespaces/inkscape"
   id="svg4136"
   height="1259.1"
   viewBox="0 0 1849.4663 1259.1251"
   width="1849.5"
   version="1.1"
   inkscape:version="0.91 r13725"
   sodipodi:docname="signature_opt.svg">
  <metadata
     id="metadata15">
    <rdf:RDF>
      <cc:Work
         rdf:about="">
        <dc:format>image/svg+xml</dc:format>
        <dc:type
           rdf:resource="http://purl.org/dc/dcmitype/StillImage" />
      </cc:Work>
    </rdf:RDF>
  </metadata>
  <defs
     id="defs13" />
  <sodipodi:namedview
     pagecolor="#ffffff"
     bordercolor="#666666"
     borderopacity="1"
     objecttolerance="10"
     gridtolerance="10"
     guidetolerance="10"
     inkscape:pageopacity="0"
     inkscape:pageshadow="2"
     inkscape:window-width="1280"
     inkscape:window-height="657"
     id="namedview11"
     showgrid="false"
     inkscape:zoom="0.43699543"
     inkscape:cx="956.92136"
     inkscape:cy="652.80757"
     inkscape:window-x="-8"
     inkscape:window-y="-8"
     inkscape:window-maximized="1"
     inkscape:current-layer="svg4136" />
  <g
     id="layer1"
     transform="translate(-741.85 -495.06)"
     style="stroke:#000000;stroke-opacity:1">
    <path
       id="1"
       style="stroke-linejoin:round;stroke:#000000;stroke-linecap:round;stroke-width:10;fill:none;stroke-opacity:1"
       d="m1364.7 1047.4c-45.621-79.511-56.049-101.02-78.208-117.31-63.87-46.925-70.387-46.273-79.511-49.532-72.994-39.104-128.91-62.119-128.91-62.119s89.156 48.433 154.98 62.119c41.711 7.8208 86.191-13.198 95.153-18.248 27.699-14.827 71.141-46.432 110.79-91.242 18.736-21.173 34.28-45.729 50.835-80.815 16.556-35.085 19.118-66.6 18.248-101.67-0.1792-7.2291-1.4135-14.072-11.731-18.248-12.85-5.2014-20.509 7.7948-35.194 22.159s-40.406 51.484-70.387 102.97c-29.981 51.49-86.028 174.66-86.028 174.66s-157.81 348.6-264.6 567.01c-82.974 149.67-99.961 177.84-149.81 248.74-36.185 51.465-55.279 66.717-88.728 62.79-41.829-4.9105-45.621-69.084-48.228-93.849-7.8208-61.263-9.1242-109.49-1.3035-177.27 13.035-84.725 25.753-129.36 60.407-217.68 50.388-100.14 119.47-191.61 165.09-243.75 46.925-46.925 71.69-69.083 125.13-110.79 48.228-28.676 87.169-25.906 100.37-27.373 19.226-0.9776 45.025 14.471 124.75-10.875 16.59-23.964 24.739-38.578 39.486-39.96 10.599 8.2952 28.532 5.2793 23.462 11.731-5.0693 1.8434-7.3328-10.889-23.462-10.428-17.051 5.991-24.987 13.262-39.104 35.193-14.117 21.932-27.596 45.605-31.283 99.063 1.8434 36.867 10.111 38.024 15.642 41.711 29.494-2.3042 35.259-24.962 41.711-44.318 10.139-31.798 26.069-86.028 26.069-86.028s-20.632 58.746-16.945 95.153c12.904 32.259 15.167 25.134 23.462 33.89 18.895 1.8434 35.193-44.318 35.193-44.318" />
    <path
       id="2"
       style="stroke-linejoin:round;stroke:#000000;stroke-linecap:round;stroke-width:10;fill:none;stroke-opacity:1"
       d="m1470.3 849.23-9.1242-1.3035c-13.686 13.686-16.945 18.9-22.159 28.676-14.338 26.069-20.204 41.059-24.766 58.656-2.6069 19.552-2.9627 21.345 1.3034 30.631 3.8496 8.3801 11.107 17.385 20.204 18.9 11.51 1.917 22.218-7.8766 31.935-14.338 11.391-7.5749 23.462-21.507 29.98-28.024" />
    <path
       id="3"
       style="stroke-linejoin:round;stroke:#000000;stroke-linecap:round;stroke-width:10;fill:none;stroke-opacity:1"
       d="m1529.1 875.14s2.2333-13.043-1.8434-17.051c-3.6298-3.5685-10.698-3.7422-15.208-1.3825-22.066 11.544-30.804 37.85-37.789 61.753-5.588 19.122-7.4009 32.424-10.599 48.849-1.5092 7.7503 6.4339 18.066 14.286 18.895 14.946 1.5777 25.022-17.519 34.102-29.494 12.207-16.098 20.415-35.37 25.807-54.84 4.9037-17.706 5.5302-54.84 5.5302-54.84" />
    <path
       id="4"
       style="stroke-linejoin:round;stroke:#000000;stroke-linecap:round;stroke-width:10;fill:none;stroke-opacity:1"
       d="m1552.4 728.34s3.813-18.529 10.754-17.923c6.9532 0.60774 6.2245 12.689 7.4949 19.552 4.1715 22.536 1.8743 45.915 0 68.758-2.0708 25.237-4.3221 50.945-12.383 74.949-10.55 31.418-23.336 68.336-23.136 68.758 0 0-4.3238 15.059 0.0001 14.99 16.101-0.25656 9.1551-31.753 19.226-44.318 8.316-10.375 19.278-20.588 32.261-23.462 9.4011-2.0817 20.89-0.54836 28.35 5.5397 10.94 8.9283 16.039 24.985 16.293 39.104 0.234 12.991-6.6068 25.602-13.686 36.497-10.045 15.457-24.217 31.138-42.037 37.474-14.532 5.1672-25.828-9.7614-34.868-19.552-9.1655-9.9275-15.494-23.389-16.945-36.823-0.4897-4.5332 2.9328-13.36 2.9328-13.36" />
    <path
       id="5"
       style="stroke-linejoin:round;stroke:#000000;stroke-linecap:round;stroke-width:10;fill:none;stroke-opacity:1"
       d="m1815.7 734.12-11.06-11.06s0.1164 94.225-4.6085 141.02c-4.4146 43.72-8.7716 88.092-22.12 129.96-2.7968 8.7715-11.982 24.886-11.982 24.886" />
    <path
       id="6"
       style="stroke-linejoin:round;stroke:#000000;stroke-linecap:round;stroke-width:10;fill:none;stroke-opacity:1"
       d="m1563.2 698.18s15.892-55.298 33.181-77.422c27.545-35.247 67.038-60.84 106.92-81.108 40.032-20.346 84.27-35.169 129.04-38.711 41.409-3.2766 84.369 2.6716 123.51 16.59 42.099 14.972 85.952 35.501 114.29 70.048 7.8905 9.6197 13.148 22.585 12.904 35.024-0.3794 19.281-10.081 38.393-22.12 53.458-23.947 29.965-60.825 47.127-94.012 66.361-42.811 24.813-88.592 44.375-134.57 62.675-25.275 10.06-50.222 25.395-77.422 25.807-12.829 0.19433-36.742 1.7694-36.868-11.06-0.1766-18.071 33.572-15.564 51.614-16.59 18.768-1.0672 39.079 1.5603 55.301 11.06 19.554 11.451 34.605 31.105 44.241 51.614 9.2781 19.749 9.2103 42.777 11.06 64.518 1.7192 20.204 0 60.831 0 60.831l9.2168 12.904" />
    <path
       id="7"
       style="stroke-linejoin:round;stroke:#000000;stroke-linecap:round;stroke-width:10;fill:none;stroke-opacity:1"
       d="m1891.3 843.8s-9.2235 66.466 0 97.699c3.5238 11.932 7.9273 29.827 20.277 31.337 13.376 1.6356 23.232-15.718 29.494-27.651 11.549-22.007 11.06-73.735 11.06-73.735s-12.947 59.256-3.6867 86.639c1.5374 4.5462 4.428 11.372 9.2169 11.06 21.774-1.4192 35.024-55.301 35.024-55.301v53.458s1.7039-67.798 21.041-88.91c7.4874-8.1749 17.114-12.56 25.603-9.3287 9.3223 3.5484 14.188 26.347 14.188 26.347l1.8433 70.048s35.997-16.693 44.241-33.181c7.6942-15.388 16.355-46.275 0-51.614-18.81-6.1405-34.598 33.359-35.024 53.142-0.2863 13.29 10.302 26.705 22.12 27.967 13.456 1.4362 24.19-14.317 31.337-25.807 5.6682-9.1119 7.3735-31.337 7.3735-31.337s21.562 112.03 14.747 167.75c-5.0485 41.276-13.602 105.25-54.24 114.07-15.716 3.4097-17.336-10.724-19.494-31.114-2.1585-20.39 16.317-55.536 29.494-81.108 26.31-51.058 64.177-95.298 97.699-141.94 8.9651-12.474 28.74-21.545 27.651-36.867-0.4928-6.9343-8.6057-18.005-14.747-14.747-14.372 7.6233-0.9536 35.23 9.2168 47.928 9.6339 12.028 27.205 15.851 42.398 18.434 41.304 7.0205 84.28-0.93711 125.35-9.2169 69.905-14.093 202.77-68.205 202.77-68.205" />
  </g>
  <path
     style="fill:none;fill-rule:evenodd;stroke:#000000;stroke-width:1.00002003px;stroke-linecap:butt;stroke-linejoin:miter;stroke-opacity:1"
     d="M 327.20575,616.08499 C 636.13965,529.12582 1409.6185,494.79982 1553.7877,501.66502"
     id="path4143"
     inkscape:connector-curvature="0"
     sodipodi:nodetypes="cc" />
</svg>
